<svg xmlns="http://www.w3.org/2000/svg" width="24" height="24" viewBox="0 0 24 24" fill="currentColor"><path d="M19.125 3h-4.25c-.483 0-.875.392-.875.875v16.25c0 .483.392.875.875.875h4.25c.483 0 .875-.392.875-.875V3.875c0-.483-.392-.875-.875-.875zM4.875 3c-.483 0-.875.392-.875.875v10.5c0 .483.392.875.875.875h4.25c.483 0 .875-.392.875-.875V3.875c0-.483-.392-.875-.875-.875H4.875zM9.125 16.5H4.875a.875.875 0 0 0-.875.875v3.25c0 .483.392.875.875.875h4.25c.483 0 .875-.392.875-.875v-3.25a.875.875 0 0 0-.875-.875zM9.999 3.875v16.25c0 .483.392.875.875.875h4.25c.483 0 .875-.392.875-.875V3.875c0-.483-.392-.875-.875-.875h-4.25a.875.875 0 0 0-.875.875z"/></svg>
